@startuml


title 基于GitHub的实验管理平台--类图


 class users {
     <b>user_id</b> （用户ID）
     name （用户真实姓名）
     github_username （用户GitHub账号）
    update_date （用户GitHub账号修改日期）
     password （用户密码）
    disable （用户是否禁用）


 }

 class students{
     <b>student_id</b> （学号）
     class （班级）
     result_sum（成绩汇总）
     web_sum （网站正确与否汇总）
     college(学生所属学院)
     professional（学生所属专业）
 }

 class teachers{
    <b>teacher_id</b> （老师工号）
     teacher_name（教师名称）
     department （老师所属部门）
 }


 class grades {
     <b>student_id</b> （学号）
     <b>test_id</b> （实验ID）
    result （分数）
     memo （评价）
     update_date （评改日期）
}


class courses{
     <b>course_id</b>（课程ID）
     course_name（课程名称）
     substance（课程内容）
 }
 class terms{
     <b>term_id</b>（学期ID）
     term-year（学年）
}
 class tests {
 <b>test_id</b> （实验ID）
teacher_id（老师工号）
course_id（课程ID）
data（实验发布时间）
substance（实验内容）
title （实验名称）
 }


users <|- students
users <|-- teachers
students "1" -- "n"  courses
teachers "1" -- "n"  courses
students "1" -- "n"  terms
teachers "1" -- "n"  terms
students "1" -- "n"  grades
tests "1" -- "n"  grades
teachers "1" -- "n"  tests
tests "1" -- "n"  courses

  @enduml
